<?xml version="1.0" encoding="utf-8"?>
<!-- Generator: Adobe Illustrator 16.0.4, SVG Export Plug-In . SVG Version: 6.00 Build 0)  -->
<!DOCTYPE svg PUBLIC "-//W3C//DTD SVG 1.1//EN" "http://www.w3.org/Graphics/SVG/1.1/DTD/svg11.dtd">
<svg version="1.1" id="Layer_1" xmlns="http://www.w3.org/2000/svg" xmlns:xlink="http://www.w3.org/1999/xlink" x="0px" y="0px"
	 width="134.783px" height="186px" viewBox="0 -14.761 134.783 186" enable-background="new 0 -14.761 134.783 186"
	 xml:space="preserve">
<path id="Facebook_Places" fill="#26C4F4" d="M11.888,121.036c0.602,2.256,1.824,4.66,2.729,6.767
	c10.822,26.008,34.468,35.328,53.562,35.328c25.559,0,53.711-17.14,57.469-52.468v-7.217c0-0.301-0.103-3.006-0.25-4.361
	c-2.107-16.836-15.393-34.728-25.313-51.563C89.41,29.482,78.333,11.739,67.358-6C60.594,5.574,53.851,17.302,47.239,28.579
	c-1.804,3.309-3.896,6.614-5.7,9.772c-1.202,2.104-3.5,4.208-4.549,6.164C26.316,64.057,9.135,83.751,9.135,103.146v7.967
	C9.135,113.219,11.739,120.583,11.888,121.036z"/>
<path id="Facebook" fill="#FFFFFF" d="M54.442,63.714c0,2.462,0,13.456,0,13.456h-9.858v16.456h9.858v48.9h20.254v-48.9h13.589
	c0,0,1.272-7.891,1.89-16.518c-1.77,0-15.402,0-15.402,0s0-9.576,0-11.252c0-1.681,2.209-3.944,4.392-3.944
	c2.179,0,6.776,0,11.035,0c0-2.237,0-9.98,0-17.13c-5.685,0-12.153,0-15.003,0C53.942,44.782,54.442,61.253,54.442,63.714z"/>
</svg>
