<?xml version="1.0" encoding="utf-8"?>
<!-- Generator: Adobe Illustrator 16.0.4, SVG Export Plug-In . SVG Version: 6.00 Build 0)  -->
<!DOCTYPE svg PUBLIC "-//W3C//DTD SVG 1.1//EN" "http://www.w3.org/Graphics/SVG/1.1/DTD/svg11.dtd">
<svg version="1.1" id="Layer_1" xmlns="http://www.w3.org/2000/svg" xmlns:xlink="http://www.w3.org/1999/xlink" x="0px" y="0px"
	 width="134.783px" height="203.478px" viewBox="0 0 134.783 203.478" enable-background="new 0 0 134.783 203.478"
	 xml:space="preserve">
<path id="Facebook_Places_2_" fill="#26C4F4" d="M8.245,149.071c0.646,2.418,1.956,4.996,2.925,7.252
	c11.601,27.88,36.949,37.871,57.417,37.871c27.398,0,57.577-18.372,61.606-56.243v-7.737c0-0.321-0.11-3.222-0.269-4.674
	c-2.259-18.049-16.5-37.228-27.136-55.276C91.347,50.926,79.472,31.906,67.708,12.89C60.457,25.297,53.229,37.869,46.14,49.958
	c-1.934,3.546-4.176,7.09-6.11,10.476c-1.288,2.255-3.751,4.511-4.877,6.608C23.711,87.99,5.293,109.102,5.293,129.893v8.54
	C5.293,140.688,8.085,148.585,8.245,149.071z"/>
<path fill="#FFFFFF" d="M54.898,108.058c0,0-9.22,12.673-5.6,25.949s7.242,18.405,4.224,28.664
	c-3.017,10.259-6.211,13.578-5.067,16.595c1.145,3.017,5.067,3.621,7.783-3.923c2.715-7.543,6.939-15.991,4.526-23.836
	c0,0,5.431-3.621,4.828-0.604c-0.604,3.018-3.226,10.561,0.046,18.406c3.273,7.845,3.617,10.836,7.366,12.055
	c3.75,1.221,4.052-2.098,3.147-4.512c-0.905-2.414-9.655-8.75-4.526-24.138s12.371-32.586-0.302-41.336
	C58.651,102.626,61.099,103.23,54.898,108.058z"/>
<path fill="#FFFFFF" d="M65.11,32.426c0,0-0.725,20.215-10.38,31.983s-26.552,28.362-28.362,44.958
	c-1.811,16.595,0.302,12.974,2.112,13.879c1.81,0.905,3.319-2.414,3.017-8.448c-0.302-6.035,4.859-9.354,13.896-12.069
	c9.036-2.715,23.518-8.75,25.63-2.715c2.112,6.034,6.939,17.5,16.595,21.422s4.526-7.241,1.509-10.561
	c-3.017-3.319-13.578-12.225-11.466-32.966c2.112-20.741,3.319-31.302-2.715-39.75c-6.035-8.449-5.252-9.957-7.543-7.845
	L65.11,32.426z"/>
<path fill="#26C4F4" d="M68.609,46.607c0,0-0.905,10.259-7.845,19.612c-6.94,9.354-19.009,24.742-21.725,28.362
	c-2.715,3.621-4.224,6.035,3.319,3.017c7.543-3.017,13.578-6.035,20.819-7.241c7.242-1.207,7.845-0.905,7.845-6.336
	S74.04,71.65,74.04,64.71S70.416,38.752,68.609,46.607z"/>
<path fill="#FFFFFF" d="M83.043,81.004c0,0-4.526,9.655,7.242,23.836c11.767,14.181,3.116,26.854-8.097,38.319
	c-11.213,11.465-10.007,32.586,2.364,33.19c12.371,0.604,22.629-13.276,26.854-28.966s6.336-38.319-3.319-55.216
	C98.432,75.271,91.793,66.219,83.043,81.004z"/>
<path fill="#26C4F4" d="M94.719,82.814c0,0-8.658-4.526-4.132,10.259s16.293,23.535,8.75,36.208
	c-7.543,12.672-24.138,34.698-15.992,38.922c8.146,4.225,23.836-15.689,24.742-26.25s-0.302-14.483,0-27.155
	C108.389,102.125,99.756,85.228,94.719,82.814z"/>
<path fill="#FFFFFF" d="M83.949,173.936c0,0-2.112,4.828,0,6.94c2.112,2.112,6.336,0,5.431-9.354s1.883-11.77-3.121-10.259
	C81.253,162.774,86.966,168.806,83.949,173.936z"/>
<path fill="#FFFFFF" d="M18.564,131.948c0,0,0.302,22.63,5.129,28.665c4.828,6.034,17.199,20.517,22.63,11.164
	s6.336-17.802,0-31.983c-6.336-14.181-2.716-24.44-0.905-27.759c1.81-3.319,2.414-7.543-5.129,0
	c-7.543,7.543-4.526,19.063-0.302,29.291c4.224,10.23,9.129,31.979-5.332,20.494c-14.464-11.492-9.453-31.379-8.849-32.888
	S17.872,120.492,18.564,131.948z"/>
<path fill="#26C4F4" d="M58.35,143.662h9.957c0,0,2.716-7.241,4.526-15.69c1.811-8.448-11.164-20.216-14.483-12.069
	C55.031,124.049,52.617,127.972,58.35,143.662z"/>
</svg>
