<?xml version="1.0" encoding="utf-8"?>
<!-- Generator: Adobe Illustrator 16.0.4, SVG Export Plug-In . SVG Version: 6.00 Build 0)  -->
<!DOCTYPE svg PUBLIC "-//W3C//DTD SVG 1.1//EN" "http://www.w3.org/Graphics/SVG/1.1/DTD/svg11.dtd">
<svg version="1.1" id="Layer_1" xmlns="http://www.w3.org/2000/svg" xmlns:xlink="http://www.w3.org/1999/xlink" x="0px" y="0px"
	 width="134.783px" height="186px" viewBox="0 -8.761 134.783 186" enable-background="new 0 -8.761 134.783 186"
	 xml:space="preserve">
<path id="Facebook_Places_1_" fill="#26C4F4" d="M11.889,127.035c0.602,2.258,1.824,4.662,2.729,6.767
	c10.822,26.008,34.469,35.33,53.563,35.33c25.559,0,53.709-17.14,57.469-52.468v-7.219c0-0.299-0.104-3.006-0.252-4.358
	c-2.107-16.839-15.393-34.729-25.312-51.565C89.409,35.481,78.333,17.739,67.357,0c-6.764,11.574-13.506,23.303-20.119,34.579
	c-1.804,3.308-3.896,6.613-5.7,9.771c-1.201,2.104-3.5,4.209-4.549,6.164C26.315,70.057,9.134,89.75,9.134,109.147v7.967
	C9.134,119.218,11.74,126.584,11.889,127.035z"/>
<path id="Twitter_2_" fill="#FFFFFF" d="M108.915,82.539c-3.057,1.354-6.338,2.271-9.787,2.685c3.52-2.107,6.221-5.447,7.492-9.428
	c-3.291,1.952-6.938,3.37-10.82,4.135c-3.105-3.312-7.533-5.381-12.436-5.381c-9.408,0-17.039,7.629-17.039,17.039
	c0,1.336,0.151,2.635,0.441,3.883c-14.159-0.709-26.715-7.494-35.118-17.801c-1.467,2.514-2.308,5.44-2.308,8.563
	c0,5.912,3.009,11.125,7.581,14.182c-2.794-0.088-5.42-0.854-7.717-2.133c-0.003,0.072-0.003,0.146-0.003,0.217
	c0,8.255,5.874,15.142,13.668,16.707c-1.43,0.388-2.937,0.599-4.489,0.599c-1.097,0-2.164-0.107-3.205-0.308
	c2.168,6.769,8.461,11.695,15.916,11.832c-5.831,4.57-13.178,7.295-21.16,7.295c-1.376,0-2.73-0.082-4.064-0.239
	c7.54,4.834,16.496,7.655,26.118,7.655c31.34,0,48.477-25.963,48.477-48.479c0-0.738-0.016-1.471-0.049-2.203
	C103.743,88.955,106.63,85.955,108.915,82.539z"/>
</svg>
